HIERARCHY
ROOT root
{
	OFFSET	0	13.1	24.9
	CHANNELS 6  Xposition Yposition Zposition Xrotation Yrotation Zrotation
	JOINT spine_1
	{
		OFFSET	0	9.99999	0
		CHANNELS 3  Xrotation Yrotation Zrotation
		JOINT spine_2
		{
			OFFSET	0	112	-10
			CHANNELS 3  Xrotation Yrotation Zrotation
			JOINT spine_3
			{
				OFFSET	0	206.5	19.3
				CHANNELS 3  Xrotation Yrotation Zrotation
				JOINT spine_4
				{
					OFFSET	0	110.4	14.6
					CHANNELS 3  Xrotation Yrotation Zrotation
					JOINT neck_1
					{
						OFFSET	0	71.8	-50.3
						CHANNELS 3  Xrotation Yrotation Zrotation
						JOINT neck_2
						{
							OFFSET	0	86.2	-25.8
							CHANNELS 3  Xrotation Yrotation Zrotation
							JOINT head_ee
							{
								OFFSET	0	179.8	-8.7
								CHANNELS 3  Xrotation Yrotation Zrotation
								End Site
								{
									OFFSET	1	0	0
								}
							}
						}
					}
					JOINT left_clavicle
					{
						OFFSET	-43.2	22.4	-70.8
						CHANNELS 3  Xrotation Yrotation Zrotation
						JOINT left_shoulder
						{
							OFFSET	-93.9	-5.79999	48.7
							CHANNELS 3  Xrotation Yrotation Zrotation
							JOINT left_elbow
							{
								OFFSET	-291.4	-30.8	15.2
								CHANNELS 3  Xrotation Yrotation Zrotation
								JOINT left_lowarm_twist
								{
									OFFSET	-110.7	-3.89999	13.6
									CHANNELS 3  Xrotation Yrotation Zrotation
									JOINT left_hand
									{
										OFFSET	-110.7	-3.89999	13.6
										CHANNELS 3  Xrotation Yrotation Zrotation
										JOINT left_ee
										{
											OFFSET	-80.8	-5.10001	12.1
											CHANNELS 3  Xrotation Yrotation Zrotation
											End Site
											{
												OFFSET	1	0	0
											}
										}
									}
								}
							}
						}
					}
					JOINT right_clavicle
					{
						OFFSET	43.2	22.4	-70.8
						CHANNELS 3  Xrotation Yrotation Zrotation
						JOINT right_shoulder
						{
							OFFSET	93.9	-5.79999	48.7
							CHANNELS 3  Xrotation Yrotation Zrotation
							JOINT right_elbow
							{
								OFFSET	291.4	-30.8	15.2
								CHANNELS 3  Xrotation Yrotation Zrotation
								JOINT right_lowarm_twist
								{
									OFFSET	110.7	-3.89999	13.6
									CHANNELS 3  Xrotation Yrotation Zrotation
									JOINT right_hand
									{
										OFFSET	110.7	-3.89999	13.6
										CHANNELS 3  Xrotation Yrotation Zrotation
										JOINT right_ee
										{
											OFFSET	80.8	-5.10001	12.1
											CHANNELS 3  Xrotation Yrotation Zrotation
											End Site
											{
												OFFSET	1	0	0
											}
										}
									}
								}
							}
						}
					}
				}
			}
		}
	}
	JOINT left_hip
	{
		OFFSET	-82.8	-127.5	0.300001
		CHANNELS 3  Xrotation Yrotation Zrotation
		JOINT left_knee
		{
			OFFSET	-28.2	-396.7	2.2
			CHANNELS 3  Xrotation Yrotation Zrotation
			JOINT left_ankle
			{
				OFFSET	-11.7	-411.3	35.4
				CHANNELS 3  Xrotation Yrotation Zrotation
				JOINT left_toes
				{
					OFFSET	0	-60	-88.6
					CHANNELS 3  Xrotation Yrotation Zrotation
					JOINT left_foot_ee
					{
						OFFSET	-22.5	-16.5	-42.2
						CHANNELS 3  Xrotation Yrotation Zrotation
						End Site
						{
							OFFSET	1	0	0
						}
					}
				}
			}
		}
	}
	JOINT right_hip
	{
		OFFSET	82.8	-127.5	0.300001
		CHANNELS 3  Xrotation Yrotation Zrotation
		JOINT right_knee
		{
			OFFSET	28.2	-396.7	2.2
			CHANNELS 3  Xrotation Yrotation Zrotation
			JOINT right_ankle
			{
				OFFSET	11.7	-411.3	35.4
				CHANNELS 3  Xrotation Yrotation Zrotation
				JOINT right_toes
				{
					OFFSET	0	-60	-88.6
					CHANNELS 3  Xrotation Yrotation Zrotation
					JOINT right_foot_ee
					{
						OFFSET	22.5	-16.5	-42.2
						CHANNELS 3  Xrotation Yrotation Zrotation
						End Site
						{
							OFFSET	1	0	0
						}
					}
				}
			}
		}
	}
}
MOTION
Frames: 5
Frame Time: 0.02
1372.05 701.618 -1475.22 -2.93131555907 23.8857480945 0.224425480876 -0.848124 -0.245356 -1.09491 -0.847475 -0.175192 -1.1083 -0.843533 0.0781447 -1.11933 -0.845268 -0.0996023 -1.11763 -2.39349 10.549 6.22995 -2.23054 14.2103 7.93708 -0.0 0.0 -0.0 5.38221 9.61986 10.515 16.0757 -23.1139 62.6772 2.329 -49.0754 1.06336 -14.5961 -0.736451 1.70982 -1.3478 0.56724 -8.7825 -0.0 0.0 -0.0 10.3134 4.62727 -20.4837 -39.1235 27.0826 -47.1207 0.697172 19.0528 -0.116998 -45.777 3.58543 -4.44402 1.59111 -15.4166 -16.3714 0.0 0.0 0.0 -2.04666 -3.99723 8.99088 -17.7482 0.315645 2.69446 41.3363 24.0901 -5.26461 -29.0141 0.0 0.0 -0.0 0.0 -0.0 35.2351 -2.15026 -2.61342 -1.47434 -0.0578923 -0.218846 -3.29318 -11.9838 -0.486322 5.21414 -0.0 -0.0 0.0 0.0 0.0 
1335.28891797 689.634 -1535.27785725 -1.85073494238 28.572848366 0.135979416933 -1.33579 -0.238941 -1.21157 -1.33499 -0.161367 -1.22432 -1.33078 0.128126 -1.22824 -1.33288 -0.0674444 -1.23306 1.78883 11.5815 4.11684 2.03856 16.9503 5.46051 -0.0 0.0 -0.0 5.67219 6.19938 11.0449 12.0606 -23.7561 61.3684 2.3146 -48.8996 1.05249 -17.3807 -0.925271 2.01213 -0.982403 2.03552 -5.67502 -0.0 0.0 -0.0 9.60298 7.10809 -18.9904 -38.6737 27.557 -50.631 0.672467 18.4241 -0.109062 -40.9176 3.04928 -4.12578 1.2544 -10.5863 -12.4922 0.0 0.0 0.0 -4.48732 -3.60539 7.93741 -24.824 0.207277 3.77411 38.0765 14.6257 -4.75096 -31.9749 0.0 0.0 -0.0 0.0 -0.0 38.0772 -1.93587 -1.48957 -16.9895 -0.319331 -2.57811 -18.3359 -2.73558 -2.76969 4.63509 -0.0 -0.0 0.0 0.0 0.0 
1316.48490728 696.968 -1561.90142112 -0.525470294422 29.8302588735 -1.29880646247 -1.75738 -0.263458 -1.06644 -1.75677 -0.195068 -1.08105 -1.75239 0.0700526 -1.09627 -1.75405 -0.103951 -1.09357 1.1739 11.8483 3.54758 1.43588 18.0223 4.91239 -0.0 0.0 -0.0 6.18179 7.23616 11.9754 9.65771 -21.4915 61.263 2.31789 -48.9399 1.05497 -18.3139 -0.991823 2.11136 -1.05849 0.998205 -6.64365 -0.0 0.0 -0.0 9.78815 6.29701 -19.3845 -38.1458 28.3193 -49.8122 0.666605 18.2742 -0.107216 -41.044 3.06287 -4.13463 1.24456 -11.2499 -12.6691 0.0 0.0 0.0 -4.9517 0.454665 7.17794 -27.573 0.129346 4.18877 33.7637 12.5276 -4.30702 -33.4556 0.0 0.0 -0.0 0.0 -0.0 36.2022 -1.27769 -0.233826 -19.3534 -0.302771 -2.94041 -16.4563 -0.371875 -2.49599 5.95206 -0.0 -0.0 0.0 0.0 0.0 
1298.42339826 698.99 -1583.18226221 0.845801415109 29.9511354833 -2.55414577436 -1.84826 -0.145019 -0.945248 -1.84777 -0.0845792 -0.95256 -1.84585 0.148034 -0.944781 -1.8471 -0.00302756 -0.956302 0.328797 11.9594 5.34399 0.563343 16.9027 6.94699 -0.0 0.0 -0.0 6.20867 7.79841 12.0163 6.72044 -22.2694 61.9481 2.16694 -47.0225 0.942809 -18.4324 -1.00039 2.12389 -0.898462 2.67292 -4.83471 -0.0 0.0 -0.0 10.3869 6.15752 -20.672 -40.0463 28.2334 -48.3965 0.65555 17.9908 -0.103776 -40.2816 2.98116 -4.08081 1.29229 -11.3342 -13.0117 0.0 0.0 0.0 -4.33693 2.02174 6.92442 -32.0927 -0.0417638 4.8611 29.6752 11.9855 -3.87304 -33.8819 0.0 0.0 -0.0 0.0 -0.0 33.862 -0.175995 0.625886 -20.9794 -0.282712 -3.18908 -17.5586 1.69763 -2.68098 7.24058 -0.0 -0.0 0.0 0.0 0.0 
1258.95586987 708.461 -1628.42669879 3.13636846211 29.9154294963 -3.92462572637 -2.16966 0.0144152 -0.861271 -2.16925 0.0691888 -0.858608 -2.16993 0.279179 -0.814898 -2.17083 0.146982 -0.848759 -0.160402 12.9663 3.70217 0.123645 20.1608 5.32403 -0.0 0.0 -0.0 6.97599 9.53704 13.3566 0.998501 -20.8617 61.1606 1.77077 -41.2531 0.666572 -18.1573 -0.980544 2.09479 -0.872158 2.57348 -4.70357 -0.0 0.0 -0.0 10.9897 7.23205 -22.0009 -37.8028 29.5505 -45.1507 0.650823 17.8693 -0.102321 -41.5832 3.12109 -4.17204 1.06261 -14.0415 -12.4929 0.0 0.0 0.0 -1.74395 4.82922 4.83277 -41.6635 -0.575979 6.22957 26.105 11.343 -3.46981 -38.1477 0.0 0.0 -0.0 0.0 -0.0 29.2739 -1.14485 1.60234 -24.9299 -0.204644 -3.79015 -11.338 9.50072 -1.7825 8.46018 -0.0 -0.0 0.0 0.0 0.0 
